<mxfile host="Electron" agent="Mozilla/5.0 (Windows NT 10.0; Win64; x64) AppleWebKit/537.36 (KHTML, like Gecko) draw.io/24.7.8 Chrome/128.0.6613.36 Electron/32.0.1 Safari/537.36" version="24.7.8">
  <diagram name="Page-1" id="-c6Ry725GxhYZqOuj7hc">
    <mxGraphModel dx="3497" dy="1730" grid="1" gridSize="10" guides="1" tooltips="1" connect="1" arrows="1" fold="1" page="1" pageScale="1" pageWidth="850" pageHeight="1100" math="0" shadow="0">
      <root>
        <mxCell id="0" />
        <mxCell id="1" parent="0" />
        <mxCell id="g0l_ifj-5Xz2NjAmxus5-56" value="" style="rounded=0;whiteSpace=wrap;html=1;connectable=0;fillColor=#f8cecc;strokeColor=#b85450;labelBackgroundColor=none;" parent="1" vertex="1">
          <mxGeometry x="-240" y="460" width="710" height="190" as="geometry" />
        </mxCell>
        <mxCell id="g0l_ifj-5Xz2NjAmxus5-57" value="" style="rounded=0;whiteSpace=wrap;html=1;connectable=0;labelBackgroundColor=none;" parent="1" vertex="1">
          <mxGeometry x="-200" y="500" width="210" height="100" as="geometry" />
        </mxCell>
        <mxCell id="g0l_ifj-5Xz2NjAmxus5-58" value="0x0000 0000 - 0x0000 BFFF" style="text;html=1;align=center;verticalAlign=middle;resizable=0;points=[];autosize=1;strokeColor=none;fillColor=none;connectable=0;labelBackgroundColor=none;" parent="1" vertex="1">
          <mxGeometry x="-210" y="595" width="180" height="30" as="geometry" />
        </mxCell>
        <mxCell id="g0l_ifj-5Xz2NjAmxus5-59" value="0x0002 0000 - 0x0002 7FFF" style="text;html=1;align=center;verticalAlign=middle;resizable=0;points=[];autosize=1;strokeColor=none;fillColor=none;connectable=0;labelBackgroundColor=none;" parent="1" vertex="1">
          <mxGeometry x="10" y="595" width="170" height="30" as="geometry" />
        </mxCell>
        <mxCell id="g0l_ifj-5Xz2NjAmxus5-60" value="0x0002 8000 - 0x0004 7FFF" style="text;html=1;align=center;verticalAlign=middle;resizable=0;points=[];autosize=1;strokeColor=none;fillColor=none;connectable=0;labelBackgroundColor=none;" parent="1" vertex="1">
          <mxGeometry x="230" y="595" width="170" height="30" as="geometry" />
        </mxCell>
        <mxCell id="g0l_ifj-5Xz2NjAmxus5-61" value="" style="rounded=0;whiteSpace=wrap;html=1;connectable=0;fillColor=#d5e8d4;strokeColor=#82b366;labelBackgroundColor=none;" parent="1" vertex="1">
          <mxGeometry x="520" y="780" width="730" height="180" as="geometry" />
        </mxCell>
        <mxCell id="g0l_ifj-5Xz2NjAmxus5-62" value="0x4000 0000 - 0xBFFF FFFF" style="text;html=1;align=center;verticalAlign=middle;resizable=0;points=[];autosize=1;strokeColor=none;fillColor=none;connectable=0;labelBackgroundColor=none;" parent="1" vertex="1">
          <mxGeometry x="600" y="780" width="180" height="30" as="geometry" />
        </mxCell>
        <mxCell id="g0l_ifj-5Xz2NjAmxus5-63" value="D1H" style="text;html=1;align=center;verticalAlign=middle;whiteSpace=wrap;rounded=0;labelBackgroundColor=none;" parent="1" vertex="1">
          <mxGeometry x="-240" y="460" width="60" height="30" as="geometry" />
        </mxCell>
        <mxCell id="g0l_ifj-5Xz2NjAmxus5-64" value="" style="rounded=0;whiteSpace=wrap;html=1;connectable=0;fillColor=#dae8fc;strokeColor=#6c8ebf;labelBackgroundColor=none;" parent="1" vertex="1">
          <mxGeometry x="520" y="460" width="730" height="190" as="geometry" />
        </mxCell>
        <mxCell id="g0l_ifj-5Xz2NjAmxus5-68" value="&lt;br&gt;&lt;div style=&quot;forced-color-adjust: none; color: rgb(0, 0, 0); font-family: Helvetica; font-size: 12px; font-style: normal; font-variant-ligatures: normal; font-variant-caps: normal; font-weight: 400; letter-spacing: normal; orphans: 2; text-align: center; text-indent: 0px; text-transform: none; widows: 2; word-spacing: 0px; -webkit-text-stroke-width: 0px; white-space: normal; text-decoration-thickness: initial; text-decoration-style: initial; text-decoration-color: initial;&quot;&gt;SD Card 16 Gb&lt;/div&gt;&lt;div&gt;&lt;br&gt;&lt;/div&gt;" style="text;html=1;align=center;verticalAlign=middle;whiteSpace=wrap;rounded=0;connectable=0;labelBackgroundColor=none;" parent="1" vertex="1">
          <mxGeometry x="520" y="460" width="100" height="30" as="geometry" />
        </mxCell>
        <mxCell id="g0l_ifj-5Xz2NjAmxus5-69" value="&lt;span style=&quot;color: rgb(0, 0, 0); font-family: Helvetica; font-size: 12px; font-style: normal; font-variant-ligatures: normal; font-variant-caps: normal; font-weight: 400; letter-spacing: normal; orphans: 2; text-align: center; text-indent: 0px; text-transform: none; widows: 2; word-spacing: 0px; -webkit-text-stroke-width: 0px; white-space: normal; text-decoration-thickness: initial; text-decoration-style: initial; text-decoration-color: initial; float: none; display: inline !important;&quot;&gt;Sector 32800&lt;/span&gt;" style="text;whiteSpace=wrap;html=1;labelBackgroundColor=none;" parent="1" vertex="1">
          <mxGeometry x="718" y="600" width="90" height="30" as="geometry" />
        </mxCell>
        <mxCell id="g0l_ifj-5Xz2NjAmxus5-70" value="" style="rounded=0;whiteSpace=wrap;html=1;labelBackgroundColor=none;" parent="1" vertex="1">
          <mxGeometry x="720" y="500" width="190" height="100" as="geometry" />
        </mxCell>
        <mxCell id="g0l_ifj-5Xz2NjAmxus5-71" value="&lt;div style=&quot;forced-color-adjust: none; color: rgb(0, 0, 0); font-family: Helvetica; font-size: 12px; font-style: normal; font-variant-ligatures: normal; font-variant-caps: normal; font-weight: 400; letter-spacing: normal; orphans: 2; text-align: center; text-indent: 0px; text-transform: none; widows: 2; word-spacing: 0px; -webkit-text-stroke-width: 0px; white-space: normal; text-decoration-thickness: initial; text-decoration-style: initial; text-decoration-color: initial;&quot;&gt;DRAM 2 Gb&lt;/div&gt;" style="text;whiteSpace=wrap;html=1;labelBackgroundColor=none;" parent="1" vertex="1">
          <mxGeometry x="530" y="780" width="70" height="30" as="geometry" />
        </mxCell>
        <mxCell id="g0l_ifj-5Xz2NjAmxus5-72" value="100MiB - 2GiB" style="text;whiteSpace=wrap;align=center;labelBackgroundColor=none;" parent="1" vertex="1">
          <mxGeometry x="1050" y="600" width="100" height="30" as="geometry" />
        </mxCell>
        <mxCell id="g0l_ifj-5Xz2NjAmxus5-73" value="&lt;div&gt;&lt;span style=&quot;forced-color-adjust: none; color: rgb(0, 0, 0); font-family: Helvetica; font-size: 12px; font-style: normal; font-variant-ligatures: normal; font-variant-caps: normal; font-weight: 400; letter-spacing: normal; orphans: 2; text-indent: 0px; text-transform: none; widows: 2; word-spacing: 0px; -webkit-text-stroke-width: 0px; white-space: normal; text-decoration-thickness: initial; text-decoration-style: initial; text-decoration-color: initial; float: none; display: inline !important;&quot;&gt;40MiB - 100MiB&lt;/span&gt;&lt;br style=&quot;forced-color-adjust: none; color: rgb(0, 0, 0); font-family: Helvetica; font-size: 12px; font-style: normal; font-variant-ligatures: normal; font-variant-caps: normal; font-weight: 400; letter-spacing: normal; orphans: 2; text-indent: 0px; text-transform: none; widows: 2; word-spacing: 0px; -webkit-text-stroke-width: 0px; white-space: normal; text-decoration-thickness: initial; text-decoration-style: initial; text-decoration-color: initial;&quot;&gt;&lt;/div&gt;" style="text;whiteSpace=wrap;html=1;align=center;labelBackgroundColor=none;" parent="1" vertex="1">
          <mxGeometry x="920" y="600" width="90" height="30" as="geometry" />
        </mxCell>
        <mxCell id="g0l_ifj-5Xz2NjAmxus5-74" value="&lt;div&gt;&lt;br&gt;&lt;/div&gt;" style="rounded=0;whiteSpace=wrap;html=1;labelBackgroundColor=none;" parent="1" vertex="1">
          <mxGeometry x="920" y="500" width="130" height="100" as="geometry" />
        </mxCell>
        <mxCell id="g0l_ifj-5Xz2NjAmxus5-75" value="" style="rounded=0;whiteSpace=wrap;html=1;labelBackgroundColor=none;" parent="1" vertex="1">
          <mxGeometry x="1060" y="500" width="130" height="100" as="geometry" />
        </mxCell>
        <mxCell id="g0l_ifj-5Xz2NjAmxus5-76" value="&lt;span style=&quot;color: rgb(0, 0, 0); font-family: Helvetica; font-size: 12px; font-style: normal; font-variant-ligatures: normal; font-variant-caps: normal; font-weight: 400; letter-spacing: normal; orphans: 2; text-align: center; text-indent: 0px; text-transform: none; widows: 2; word-spacing: 0px; -webkit-text-stroke-width: 0px; white-space: normal; text-decoration-thickness: initial; text-decoration-style: initial; text-decoration-color: initial; float: none; display: inline !important;&quot;&gt;BROM (&lt;/span&gt;&lt;span style=&quot;text-align: center;&quot;&gt;48 Kb)&lt;/span&gt;" style="text;whiteSpace=wrap;html=1;labelBackgroundColor=none;" parent="1" vertex="1">
          <mxGeometry x="-200" y="500" width="100" height="30" as="geometry" />
        </mxCell>
        <UserObject label="&lt;span style=&quot;color: rgb(0, 0, 0); font-family: Helvetica; font-size: 12px; font-style: normal; font-variant-ligatures: normal; font-variant-caps: normal; font-weight: 400; letter-spacing: normal; orphans: 2; text-indent: 0px; text-transform: none; widows: 2; word-spacing: 0px; -webkit-text-stroke-width: 0px; white-space: normal; text-decoration-thickness: initial; text-decoration-style: initial; text-decoration-color: initial; float: none; display: inline !important;&quot;&gt;TOC1: sd.bin&amp;nbsp;&lt;/span&gt;&lt;div style=&quot;forced-color-adjust: none; color: rgb(0, 0, 0); font-family: Helvetica; font-size: 12px; font-style: normal; font-variant-ligatures: normal; font-variant-caps: normal; font-weight: 400; letter-spacing: normal; orphans: 2; text-indent: 0px; text-transform: none; widows: 2; word-spacing: 0px; -webkit-text-stroke-width: 0px; white-space: normal; text-decoration-thickness: initial; text-decoration-style: initial; text-decoration-color: initial;&quot;&gt;&lt;br style=&quot;forced-color-adjust: none;&quot;&gt;&lt;/div&gt;&lt;div style=&quot;forced-color-adjust: none; color: rgb(0, 0, 0); font-family: Helvetica; font-size: 12px; font-style: normal; font-variant-ligatures: normal; font-variant-caps: normal; font-weight: 400; letter-spacing: normal; orphans: 2; text-indent: 0px; text-transform: none; widows: 2; word-spacing: 0px; -webkit-text-stroke-width: 0px; white-space: normal; text-decoration-thickness: initial; text-decoration-style: initial; text-decoration-color: initial;&quot;&gt;OpenSBI: fw_dynamic.bin&lt;/div&gt;&lt;div style=&quot;forced-color-adjust: none; color: rgb(0, 0, 0); font-family: Helvetica; font-size: 12px; font-style: normal; font-variant-ligatures: normal; font-variant-caps: normal; font-weight: 400; letter-spacing: normal; orphans: 2; text-indent: 0px; text-transform: none; widows: 2; word-spacing: 0px; -webkit-text-stroke-width: 0px; white-space: normal; text-decoration-thickness: initial; text-decoration-style: initial; text-decoration-color: initial;&quot;&gt;dtb:&amp;nbsp;sun20i-d1-lichee-rv-dock.dtb&lt;/div&gt;&lt;div style=&quot;forced-color-adjust: none; color: rgb(0, 0, 0); font-family: Helvetica; font-size: 12px; font-style: normal; font-variant-ligatures: normal; font-variant-caps: normal; font-weight: 400; letter-spacing: normal; orphans: 2; text-indent: 0px; text-transform: none; widows: 2; word-spacing: 0px; -webkit-text-stroke-width: 0px; white-space: normal; text-decoration-thickness: initial; text-decoration-style: initial; text-decoration-color: initial;&quot;&gt;u-boot:&amp;nbsp;u-boot-nodtb.bin&lt;/div&gt;" id="g0l_ifj-5Xz2NjAmxus5-78">
          <mxCell style="text;whiteSpace=wrap;html=1;align=left;labelBackgroundColor=none;" parent="1" vertex="1">
            <mxGeometry x="730" y="500" width="190" height="100" as="geometry" />
          </mxCell>
        </UserObject>
        <UserObject label="&lt;span style=&quot;color: rgb(0, 0, 0); font-family: Helvetica; font-size: 12px; font-style: normal; font-variant-ligatures: normal; font-variant-caps: normal; font-weight: 400; letter-spacing: normal; orphans: 2; text-indent: 0px; text-transform: none; widows: 2; word-spacing: 0px; -webkit-text-stroke-width: 0px; white-space: normal; text-decoration-thickness: initial; text-decoration-style: initial; text-decoration-color: initial; float: none; display: inline !important;&quot;&gt;/boot&lt;/span&gt;&lt;div&gt;&lt;span style=&quot;color: rgb(0, 0, 0); font-family: Helvetica; font-size: 12px; font-style: normal; font-variant-ligatures: normal; font-variant-caps: normal; font-weight: 400; letter-spacing: normal; orphans: 2; text-indent: 0px; text-transform: none; widows: 2; word-spacing: 0px; -webkit-text-stroke-width: 0px; white-space: normal; text-decoration-thickness: initial; text-decoration-style: initial; text-decoration-color: initial; float: none; display: inline !important;&quot;&gt;&lt;br&gt;&lt;/span&gt;&lt;/div&gt;&lt;div&gt;&lt;span style=&quot;color: rgb(0, 0, 0); font-family: Helvetica; font-size: 12px; font-style: normal; font-variant-ligatures: normal; font-variant-caps: normal; font-weight: 400; letter-spacing: normal; orphans: 2; text-indent: 0px; text-transform: none; widows: 2; word-spacing: 0px; -webkit-text-stroke-width: 0px; white-space: normal; text-decoration-thickness: initial; text-decoration-style: initial; text-decoration-color: initial; float: none; display: inline !important;&quot;&gt;Image.gz&lt;/span&gt;&lt;div style=&quot;forced-color-adjust: none; color: rgb(0, 0, 0); font-family: Helvetica; font-size: 12px; font-style: normal; font-variant-ligatures: normal; font-variant-caps: normal; font-weight: 400; letter-spacing: normal; orphans: 2; text-indent: 0px; text-transform: none; widows: 2; word-spacing: 0px; -webkit-text-stroke-width: 0px; white-space: normal; text-decoration-thickness: initial; text-decoration-style: initial; text-decoration-color: initial;&quot;&gt;boot.scr&lt;/div&gt;&lt;/div&gt;" id="g0l_ifj-5Xz2NjAmxus5-79">
          <mxCell style="text;whiteSpace=wrap;html=1;align=left;labelBackgroundColor=none;" parent="1" vertex="1">
            <mxGeometry x="925" y="500" width="80" height="70" as="geometry" />
          </mxCell>
        </UserObject>
        <mxCell id="g0l_ifj-5Xz2NjAmxus5-80" value="rootfs&lt;br class=&quot;Apple-interchange-newline&quot;&gt;&lt;span style=&quot;color: rgb(0, 0, 0); font-family: Helvetica; font-size: 12px; font-style: normal; font-variant-ligatures: normal; font-variant-caps: normal; font-weight: 400; letter-spacing: normal; orphans: 2; text-indent: 0px; text-transform: none; widows: 2; word-spacing: 0px; -webkit-text-stroke-width: 0px; white-space: normal; text-decoration-thickness: initial; text-decoration-style: initial; text-decoration-color: initial; float: none; display: inline !important;&quot;&gt;&lt;br&gt;&lt;/span&gt;&lt;div&gt;&lt;span style=&quot;color: rgb(0, 0, 0); font-family: Helvetica; font-size: 12px; font-style: normal; font-variant-ligatures: normal; font-variant-caps: normal; font-weight: 400; letter-spacing: normal; orphans: 2; text-indent: 0px; text-transform: none; widows: 2; word-spacing: 0px; -webkit-text-stroke-width: 0px; white-space: normal; text-decoration-thickness: initial; text-decoration-style: initial; text-decoration-color: initial; float: none; display: inline !important;&quot;&gt;/bin&lt;/span&gt;&lt;div style=&quot;forced-color-adjust: none; color: rgb(0, 0, 0); font-family: Helvetica; font-size: 12px; font-style: normal; font-variant-ligatures: normal; font-variant-caps: normal; font-weight: 400; letter-spacing: normal; orphans: 2; text-indent: 0px; text-transform: none; widows: 2; word-spacing: 0px; -webkit-text-stroke-width: 0px; white-space: normal; text-decoration-thickness: initial; text-decoration-style: initial; text-decoration-color: initial;&quot;&gt;/etc&lt;/div&gt;&lt;div style=&quot;forced-color-adjust: none; color: rgb(0, 0, 0); font-family: Helvetica; font-size: 12px; font-style: normal; font-variant-ligatures: normal; font-variant-caps: normal; font-weight: 400; letter-spacing: normal; orphans: 2; text-indent: 0px; text-transform: none; widows: 2; word-spacing: 0px; -webkit-text-stroke-width: 0px; white-space: normal; text-decoration-thickness: initial; text-decoration-style: initial; text-decoration-color: initial;&quot;&gt;/home&lt;/div&gt;&lt;div style=&quot;forced-color-adjust: none; color: rgb(0, 0, 0); font-family: Helvetica; font-size: 12px; font-style: normal; font-variant-ligatures: normal; font-variant-caps: normal; font-weight: 400; letter-spacing: normal; orphans: 2; text-indent: 0px; text-transform: none; widows: 2; word-spacing: 0px; -webkit-text-stroke-width: 0px; white-space: normal; text-decoration-thickness: initial; text-decoration-style: initial; text-decoration-color: initial;&quot;&gt;...&lt;/div&gt;&lt;/div&gt;" style="text;whiteSpace=wrap;html=1;align=left;labelBackgroundColor=none;" parent="1" vertex="1">
          <mxGeometry x="1070" y="500" width="70" height="100" as="geometry" />
        </mxCell>
        <mxCell id="g0l_ifj-5Xz2NjAmxus5-81" value="" style="rounded=0;whiteSpace=wrap;html=1;connectable=0;labelBackgroundColor=none;" parent="1" vertex="1">
          <mxGeometry x="20" y="500" width="210" height="100" as="geometry" />
        </mxCell>
        <mxCell id="g0l_ifj-5Xz2NjAmxus5-82" value="" style="rounded=0;whiteSpace=wrap;html=1;connectable=0;labelBackgroundColor=none;" parent="1" vertex="1">
          <mxGeometry x="240" y="500" width="210" height="100" as="geometry" />
        </mxCell>
        <mxCell id="g0l_ifj-5Xz2NjAmxus5-83" value="&lt;span style=&quot;color: rgb(0, 0, 0); font-family: Helvetica; font-size: 12px; font-style: normal; font-variant-ligatures: normal; font-variant-caps: normal; font-weight: 400; letter-spacing: normal; orphans: 2; text-align: center; text-indent: 0px; text-transform: none; widows: 2; word-spacing: 0px; -webkit-text-stroke-width: 0px; white-space: normal; text-decoration-thickness: initial; text-decoration-style: initial; text-decoration-color: initial; float: none; display: inline !important;&quot;&gt;SRAM A1 (&lt;/span&gt;&lt;span style=&quot;text-align: center;&quot;&gt;32 Kb)&lt;/span&gt;" style="text;whiteSpace=wrap;html=1;labelBackgroundColor=none;" parent="1" vertex="1">
          <mxGeometry x="20" y="500" width="105" height="30" as="geometry" />
        </mxCell>
        <mxCell id="g0l_ifj-5Xz2NjAmxus5-84" value="&lt;span style=&quot;color: rgb(0, 0, 0); font-family: Helvetica; font-size: 12px; font-style: normal; font-variant-ligatures: normal; font-variant-caps: normal; font-weight: 400; letter-spacing: normal; orphans: 2; text-align: center; text-indent: 0px; text-transform: none; widows: 2; word-spacing: 0px; -webkit-text-stroke-width: 0px; white-space: normal; text-decoration-thickness: initial; text-decoration-style: initial; text-decoration-color: initial; float: none; display: inline !important;&quot;&gt;DSP RAM (&lt;/span&gt;&lt;span style=&quot;text-align: center;&quot;&gt;128 Kb)&lt;/span&gt;" style="text;whiteSpace=wrap;html=1;labelBackgroundColor=none;" parent="1" vertex="1">
          <mxGeometry x="240" y="500" width="110" height="30" as="geometry" />
        </mxCell>
        <mxCell id="g0l_ifj-5Xz2NjAmxus5-91" value="2. SPL to TOC" style="text;html=1;align=center;verticalAlign=middle;whiteSpace=wrap;rounded=0;fontSize=24;labelBackgroundColor=none;" parent="1" vertex="1">
          <mxGeometry x="-400" y="400" width="260" height="30" as="geometry" />
        </mxCell>
        <mxCell id="g0l_ifj-5Xz2NjAmxus5-92" value="" style="rounded=0;whiteSpace=wrap;html=1;connectable=0;labelBackgroundColor=none;" parent="1" vertex="1">
          <mxGeometry x="30" y="527.5" width="265" height="55" as="geometry" />
        </mxCell>
        <UserObject label="&lt;span style=&quot;color: rgb(0, 0, 0); font-family: Helvetica; font-size: 12px; font-style: normal; font-variant-ligatures: normal; font-variant-caps: normal; font-weight: 400; letter-spacing: normal; orphans: 2; text-align: center; text-indent: 0px; text-transform: none; widows: 2; word-spacing: 0px; -webkit-text-stroke-width: 0px; white-space: normal; text-decoration-thickness: initial; text-decoration-style: initial; text-decoration-color: initial; float: none; display: inline !important;&quot;&gt;sun20i_d1_spl:&lt;/span&gt;&lt;div style=&quot;forced-color-adjust: none; color: rgb(0, 0, 0); font-family: Helvetica; font-size: 12px; font-style: normal; font-variant-ligatures: normal; font-variant-caps: normal; font-weight: 400; letter-spacing: normal; orphans: 2; text-align: center; text-indent: 0px; text-transform: none; widows: 2; word-spacing: 0px; -webkit-text-stroke-width: 0px; white-space: normal; text-decoration-thickness: initial; text-decoration-style: initial; text-decoration-color: initial;&quot;&gt;boot0_sdcard_sun20iw1p1.bin&lt;/div&gt;" id="g0l_ifj-5Xz2NjAmxus5-93">
          <mxCell style="text;whiteSpace=wrap;html=1;labelBackgroundColor=none;" parent="1" vertex="1">
            <mxGeometry x="40" y="532.5" width="200" height="50" as="geometry" />
          </mxCell>
        </UserObject>
        <mxCell id="g0l_ifj-5Xz2NjAmxus5-94" value="" style="endArrow=classic;html=1;rounded=0;entryX=0.25;entryY=1;entryDx=0;entryDy=0;labelBackgroundColor=none;" parent="1" target="g0l_ifj-5Xz2NjAmxus5-69" edge="1">
          <mxGeometry width="50" height="50" relative="1" as="geometry">
            <mxPoint x="190" y="582.5" as="sourcePoint" />
            <mxPoint x="760" y="652.5" as="targetPoint" />
            <Array as="points">
              <mxPoint x="190" y="690" />
              <mxPoint x="740" y="690" />
            </Array>
          </mxGeometry>
        </mxCell>
        <mxCell id="g0l_ifj-5Xz2NjAmxus5-95" value="5" style="ellipse;whiteSpace=wrap;html=1;aspect=fixed;fontStyle=1;connectable=0;labelBackgroundColor=none;" parent="1" vertex="1">
          <mxGeometry x="460" y="675" width="30" height="30" as="geometry" />
        </mxCell>
        <mxCell id="g0l_ifj-5Xz2NjAmxus5-96" value="" style="rounded=0;whiteSpace=wrap;html=1;connectable=0;labelBackgroundColor=none;" parent="1" vertex="1">
          <mxGeometry x="538" y="820" width="182" height="100" as="geometry" />
        </mxCell>
        <mxCell id="g0l_ifj-5Xz2NjAmxus5-97" value="&lt;span style=&quot;color: rgb(0, 0, 0); font-family: Helvetica; font-size: 12px; font-style: normal; font-variant-ligatures: normal; font-variant-caps: normal; font-weight: 400; letter-spacing: normal; orphans: 2; text-align: center; text-indent: 0px; text-transform: none; widows: 2; word-spacing: 0px; -webkit-text-stroke-width: 0px; white-space: normal; text-decoration-thickness: initial; text-decoration-style: initial; text-decoration-color: initial; float: none; display: inline !important;&quot;&gt;0x40000000&lt;/span&gt;" style="text;whiteSpace=wrap;html=1;labelBackgroundColor=none;" parent="1" vertex="1">
          <mxGeometry x="538" y="920" width="100" height="30" as="geometry" />
        </mxCell>
        <UserObject label="&lt;div style=&quot;forced-color-adjust: none; color: rgb(0, 0, 0); font-family: Helvetica; font-size: 12px; font-style: normal; font-variant-ligatures: normal; font-variant-caps: normal; font-weight: 400; letter-spacing: normal; orphans: 2; text-align: left; text-indent: 0px; text-transform: none; widows: 2; word-spacing: 0px; -webkit-text-stroke-width: 0px; white-space: normal; text-decoration-thickness: initial; text-decoration-style: initial; text-decoration-color: initial;&quot;&gt;OpenSBI:&amp;nbsp;&lt;/div&gt;&lt;div style=&quot;forced-color-adjust: none; color: rgb(0, 0, 0); font-family: Helvetica; font-size: 12px; font-style: normal; font-variant-ligatures: normal; font-variant-caps: normal; font-weight: 400; letter-spacing: normal; orphans: 2; text-align: left; text-indent: 0px; text-transform: none; widows: 2; word-spacing: 0px; -webkit-text-stroke-width: 0px; white-space: normal; text-decoration-thickness: initial; text-decoration-style: initial; text-decoration-color: initial;&quot;&gt;fw_dynamic.bin&lt;/div&gt;" id="g0l_ifj-5Xz2NjAmxus5-98">
          <mxCell style="text;whiteSpace=wrap;html=1;labelBackgroundColor=none;" parent="1" vertex="1">
            <mxGeometry x="538" y="820" width="152" height="30" as="geometry" />
          </mxCell>
        </UserObject>
        <mxCell id="g0l_ifj-5Xz2NjAmxus5-99" value="" style="rounded=0;whiteSpace=wrap;html=1;connectable=0;labelBackgroundColor=none;" parent="1" vertex="1">
          <mxGeometry x="728" y="820" width="192" height="100" as="geometry" />
        </mxCell>
        <UserObject label="&lt;div style=&quot;forced-color-adjust: none; color: rgb(0, 0, 0); font-family: Helvetica; font-size: 12px; font-style: normal; font-variant-ligatures: normal; font-variant-caps: normal; font-weight: 400; letter-spacing: normal; orphans: 2; text-align: left; text-indent: 0px; text-transform: none; widows: 2; word-spacing: 0px; -webkit-text-stroke-width: 0px; white-space: normal; text-decoration-thickness: initial; text-decoration-style: initial; text-decoration-color: initial;&quot;&gt;dtb:&amp;nbsp;&lt;/div&gt;&lt;div style=&quot;forced-color-adjust: none; color: rgb(0, 0, 0); font-family: Helvetica; font-size: 12px; font-style: normal; font-variant-ligatures: normal; font-variant-caps: normal; font-weight: 400; letter-spacing: normal; orphans: 2; text-align: left; text-indent: 0px; text-transform: none; widows: 2; word-spacing: 0px; -webkit-text-stroke-width: 0px; white-space: normal; text-decoration-thickness: initial; text-decoration-style: initial; text-decoration-color: initial;&quot;&gt;sun20i-d1-lichee-rv-dock.dtb&lt;/div&gt;" id="g0l_ifj-5Xz2NjAmxus5-100">
          <mxCell style="text;whiteSpace=wrap;html=1;labelBackgroundColor=none;" parent="1" vertex="1">
            <mxGeometry x="730" y="820" width="182" height="30" as="geometry" />
          </mxCell>
        </UserObject>
        <mxCell id="g0l_ifj-5Xz2NjAmxus5-101" value="" style="rounded=0;whiteSpace=wrap;html=1;connectable=0;labelBackgroundColor=none;" parent="1" vertex="1">
          <mxGeometry x="930" y="820" width="140" height="100" as="geometry" />
        </mxCell>
        <UserObject label="&lt;span style=&quot;color: rgb(0, 0, 0); font-family: Helvetica; font-size: 12px; font-style: normal; font-variant-ligatures: normal; font-variant-caps: normal; font-weight: 400; letter-spacing: normal; orphans: 2; text-align: left; text-indent: 0px; text-transform: none; widows: 2; word-spacing: 0px; -webkit-text-stroke-width: 0px; white-space: normal; text-decoration-thickness: initial; text-decoration-style: initial; text-decoration-color: initial; float: none; display: inline !important;&quot;&gt;u-boot:&amp;nbsp;&lt;/span&gt;&lt;div&gt;&lt;span style=&quot;color: rgb(0, 0, 0); font-family: Helvetica; font-size: 12px; font-style: normal; font-variant-ligatures: normal; font-variant-caps: normal; font-weight: 400; letter-spacing: normal; orphans: 2; text-align: left; text-indent: 0px; text-transform: none; widows: 2; word-spacing: 0px; -webkit-text-stroke-width: 0px; white-space: normal; text-decoration-thickness: initial; text-decoration-style: initial; text-decoration-color: initial; float: none; display: inline !important;&quot;&gt;u-boot-nodtb.bin&lt;/span&gt;&lt;/div&gt;" id="g0l_ifj-5Xz2NjAmxus5-102">
          <mxCell style="text;whiteSpace=wrap;html=1;labelBackgroundColor=none;" parent="1" vertex="1">
            <mxGeometry x="930" y="820" width="140" height="30" as="geometry" />
          </mxCell>
        </UserObject>
        <mxCell id="g0l_ifj-5Xz2NjAmxus5-103" value="&lt;span style=&quot;color: rgb(0, 0, 0); font-family: Helvetica; font-size: 12px; font-style: normal; font-variant-ligatures: normal; font-variant-caps: normal; font-weight: 400; letter-spacing: normal; orphans: 2; text-align: center; text-indent: 0px; text-transform: none; widows: 2; word-spacing: 0px; -webkit-text-stroke-width: 0px; white-space: normal; text-decoration-thickness: initial; text-decoration-style: initial; text-decoration-color: initial; float: none; display: inline !important;&quot;&gt;0x44000000&lt;/span&gt;" style="text;whiteSpace=wrap;html=1;labelBackgroundColor=none;" parent="1" vertex="1">
          <mxGeometry x="728" y="920" width="100" height="20" as="geometry" />
        </mxCell>
        <mxCell id="g0l_ifj-5Xz2NjAmxus5-104" value="&lt;span style=&quot;color: rgb(0, 0, 0); font-family: Helvetica; font-size: 12px; font-style: normal; font-variant-ligatures: normal; font-variant-caps: normal; font-weight: 400; letter-spacing: normal; orphans: 2; text-align: center; text-indent: 0px; text-transform: none; widows: 2; word-spacing: 0px; -webkit-text-stroke-width: 0px; white-space: normal; text-decoration-thickness: initial; text-decoration-style: initial; text-decoration-color: initial; float: none; display: inline !important;&quot;&gt;0x4a000000&lt;/span&gt;" style="text;whiteSpace=wrap;html=1;labelBackgroundColor=none;" parent="1" vertex="1">
          <mxGeometry x="930" y="920" width="80" height="30" as="geometry" />
        </mxCell>
        <mxCell id="g0l_ifj-5Xz2NjAmxus5-105" value="" style="endArrow=classic;html=1;rounded=0;exitX=0.445;exitY=0.984;exitDx=0;exitDy=0;exitPerimeter=0;labelBackgroundColor=none;" parent="1" source="g0l_ifj-5Xz2NjAmxus5-78" edge="1">
          <mxGeometry width="50" height="50" relative="1" as="geometry">
            <mxPoint x="850" y="750" as="sourcePoint" />
            <mxPoint x="815" y="800" as="targetPoint" />
          </mxGeometry>
        </mxCell>
        <mxCell id="g0l_ifj-5Xz2NjAmxus5-106" value="6" style="ellipse;whiteSpace=wrap;html=1;aspect=fixed;fontStyle=1;connectable=0;labelBackgroundColor=none;" parent="1" vertex="1">
          <mxGeometry x="800" y="675" width="30" height="30" as="geometry" />
        </mxCell>
        <mxCell id="g0l_ifj-5Xz2NjAmxus5-107" value="" style="endArrow=classic;html=1;rounded=0;labelBackgroundColor=none;" parent="1" edge="1">
          <mxGeometry width="50" height="50" relative="1" as="geometry">
            <mxPoint x="190" y="430" as="sourcePoint" />
            <mxPoint x="190" y="530" as="targetPoint" />
          </mxGeometry>
        </mxCell>
        <mxCell id="g0l_ifj-5Xz2NjAmxus5-108" value="4" style="ellipse;whiteSpace=wrap;html=1;aspect=fixed;fontStyle=1;connectable=0;labelBackgroundColor=none;" parent="1" vertex="1">
          <mxGeometry x="174" y="400" width="30" height="30" as="geometry" />
        </mxCell>
      </root>
    </mxGraphModel>
  </diagram>
</mxfile>
